<?xml version="1.0" encoding="UTF-8"?>
<!DOCTYPE svg PUBLIC "-//W3C//DTD SVG 1.1//EN" "http://www.w3.org/Graphics/SVG/1.1/DTD/svg11.dtd">
<svg xmlns="http://www.w3.org/2000/svg" version="1.1" width="253px" height="297px" style="shape-rendering:geometricPrecision; text-rendering:geometricPrecision; image-rendering:optimizeQuality; fill-rule:evenodd; clip-rule:evenodd" xmlns:xlink="http://www.w3.org/1999/xlink">
<g><path style="opacity:0.953" fill="#274906" d="M 78.5,-0.5 C 79.8333,-0.5 81.1667,-0.5 82.5,-0.5C 96.9511,14.7288 106.451,32.7288 111,53.5C 113.99,32.8328 125.823,22.6661 146.5,23C 149.264,30.6216 148.764,38.1216 145,45.5C 139.326,56.1881 132.659,66.1881 125,75.5C 120.944,83.8331 119.944,92.4997 122,101.5C 124.883,106.599 127.217,111.933 129,117.5C 131.654,128.42 133.654,139.42 135,150.5C 140.667,143.5 147,137.167 154,131.5C 159.172,115.996 169.005,104.496 183.5,97C 200.503,88.5546 218.336,82.7212 237,79.5C 237.87,80.1079 238.37,80.9412 238.5,82C 232.648,92.1908 224.981,100.858 215.5,108C 198.294,120.774 179.961,131.774 160.5,141C 149.824,149.326 142.824,159.993 139.5,173C 144.635,196.003 145.635,219.17 142.5,242.5C 148.833,244.5 155.167,246.5 161.5,248.5C 161.5,249.5 161.5,250.5 161.5,251.5C 141.822,251.833 122.155,251.5 102.5,250.5C 107.508,248.244 112.341,245.577 117,242.5C 123.225,221.596 125.891,200.262 125,178.5C 120.129,161.591 111.295,147.091 98.5,135C 97.1268,134.125 95.6268,133.625 94,133.5C 73.9541,138.259 53.7874,138.759 33.5,135C 19.3347,132.096 8.00136,124.929 -0.5,113.5C -0.5,112.167 -0.5,110.833 -0.5,109.5C 29.2496,99.6458 57.9163,102.146 85.5,117C 97.4268,123.878 108.927,131.378 120,139.5C 119.96,129.028 117.627,119.028 113,109.5C 108.901,96.4014 100.401,87.5681 87.5,83C 75.9798,78.5376 64.3132,74.5376 52.5,71C 43.2469,64.5893 39.4136,55.756 41,44.5C 47.5554,43.949 54.0554,44.7824 60.5,47C 68.482,49.6516 76.1487,52.6516 83.5,56C 75.1531,41.121 72.3198,25.2877 75,8.5C 75.4949,5.1725 76.6615,2.1725 78.5,-0.5 Z"/></g>
<g><path style="opacity:0.746" fill="#274906" d="M 13.5,256.5 C 16.5184,256.335 19.5184,256.502 22.5,257C 25.8175,258.085 26.1508,259.585 23.5,261.5C 20.9711,260.04 18.3044,259.54 15.5,260C 12.8333,262.333 12.8333,264.667 15.5,267C 19.4192,268.54 22.9192,270.707 26,273.5C 26.9854,282.121 23.1521,285.288 14.5,283C 12.4453,282.313 10.7786,281.146 9.5,279.5C 9.83333,278.5 10.5,277.833 11.5,277.5C 13.8805,278.794 16.3805,279.794 19,280.5C 22.9115,278.687 23.4115,276.187 20.5,273C 16.1306,271.579 12.6306,269.079 10,265.5C 8.98042,261.553 10.1471,258.553 13.5,256.5 Z"/></g>
<g><path style="opacity:0.818" fill="#274906" d="M 32.5,256.5 C 37.1667,256.5 41.8333,256.5 46.5,256.5C 46.5,257.5 46.5,258.5 46.5,259.5C 43.1667,259.5 39.8333,259.5 36.5,259.5C 36.5,262.167 36.5,264.833 36.5,267.5C 39.1667,267.5 41.8333,267.5 44.5,267.5C 44.5,268.5 44.5,269.5 44.5,270.5C 41.8333,270.5 39.1667,270.5 36.5,270.5C 36.5,273.833 36.5,277.167 36.5,280.5C 39.8333,280.5 43.1667,280.5 46.5,280.5C 46.5,281.5 46.5,282.5 46.5,283.5C 41.8333,283.5 37.1667,283.5 32.5,283.5C 32.5,274.5 32.5,265.5 32.5,256.5 Z"/></g>
<g><path style="opacity:0.818" fill="#274906" d="M 51.5,256.5 C 56.1667,256.5 60.8333,256.5 65.5,256.5C 65.5,257.5 65.5,258.5 65.5,259.5C 62.1667,259.5 58.8333,259.5 55.5,259.5C 55.5,262.167 55.5,264.833 55.5,267.5C 58.1667,267.5 60.8333,267.5 63.5,267.5C 63.5,268.5 63.5,269.5 63.5,270.5C 60.8333,270.5 58.1667,270.5 55.5,270.5C 55.5,273.833 55.5,277.167 55.5,280.5C 58.8333,280.5 62.1667,280.5 65.5,280.5C 65.5,281.5 65.5,282.5 65.5,283.5C 60.8333,283.5 56.1667,283.5 51.5,283.5C 51.5,274.5 51.5,265.5 51.5,256.5 Z"/></g>
<g><path style="opacity:0.744" fill="#274906" d="M 71.5,256.5 C 76.6278,256.112 81.6278,256.612 86.5,258C 87.1258,258.75 87.6258,259.584 88,260.5C 88.6667,266.833 88.6667,273.167 88,279.5C 87.6258,280.416 87.1258,281.25 86.5,282C 81.6278,283.388 76.6278,283.888 71.5,283.5C 71.5,274.5 71.5,265.5 71.5,256.5 Z M 75.5,259.5 C 83.5827,258.424 86.5827,261.924 84.5,270C 86.5827,278.076 83.5827,281.576 75.5,280.5C 75.5,273.5 75.5,266.5 75.5,259.5 Z"/></g>
<g><path style="opacity:0.746" fill="#274906" d="M 98.5,256.5 C 101.518,256.335 104.518,256.502 107.5,257C 110.817,258.085 111.151,259.585 108.5,261.5C 105.971,260.04 103.304,259.54 100.5,260C 97.8333,262.333 97.8333,264.667 100.5,267C 104.419,268.54 107.919,270.707 111,273.5C 111.985,282.121 108.152,285.288 99.5,283C 97.4453,282.313 95.7786,281.146 94.5,279.5C 94.8333,278.5 95.5,277.833 96.5,277.5C 98.8805,278.794 101.38,279.794 104,280.5C 107.911,278.687 108.411,276.187 105.5,273C 101.131,271.579 97.6306,269.079 95,265.5C 93.9804,261.553 95.1471,258.553 98.5,256.5 Z"/></g>
<g><path style="opacity:0.755" fill="#274906" d="M 166.5,256.5 C 170.514,256.334 174.514,256.501 178.5,257C 182.861,259.226 184.361,262.726 183,267.5C 181.818,269.344 180.651,271.177 179.5,273C 181.27,276.366 182.603,279.866 183.5,283.5C 181.61,283.703 180.11,283.037 179,281.5C 177.833,279.167 176.667,276.833 175.5,274.5C 173.955,273.548 172.288,273.215 170.5,273.5C 170.5,276.833 170.5,280.167 170.5,283.5C 169.167,283.5 167.833,283.5 166.5,283.5C 166.5,274.5 166.5,265.5 166.5,256.5 Z M 170.5,259.5 C 178.841,258.873 181.175,262.207 177.5,269.5C 175.253,270.374 172.92,270.708 170.5,270.5C 170.5,266.833 170.5,263.167 170.5,259.5 Z"/></g>
<g><path style="opacity:0.818" fill="#274906" d="M 211.5,256.5 C 216.167,256.5 220.833,256.5 225.5,256.5C 225.5,257.5 225.5,258.5 225.5,259.5C 222.167,259.5 218.833,259.5 215.5,259.5C 215.5,262.167 215.5,264.833 215.5,267.5C 218.167,267.5 220.833,267.5 223.5,267.5C 223.5,268.5 223.5,269.5 223.5,270.5C 220.833,270.5 218.167,270.5 215.5,270.5C 215.5,273.833 215.5,277.167 215.5,280.5C 218.833,280.5 222.167,280.5 225.5,280.5C 225.5,281.5 225.5,282.5 225.5,283.5C 220.833,283.5 216.167,283.5 211.5,283.5C 211.5,274.5 211.5,265.5 211.5,256.5 Z"/></g>
<g><path style="opacity:0.881" fill="#274906" d="M 231.5,256.5 C 237.167,256.5 242.833,256.5 248.5,256.5C 248.5,257.5 248.5,258.5 248.5,259.5C 246.167,259.5 243.833,259.5 241.5,259.5C 241.5,267.5 241.5,275.5 241.5,283.5C 240.5,283.5 239.5,283.5 238.5,283.5C 238.5,275.5 238.5,267.5 238.5,259.5C 236.167,259.5 233.833,259.5 231.5,259.5C 231.5,258.5 231.5,257.5 231.5,256.5 Z"/></g>
<g><path style="opacity:0.692" fill="#274906" d="M 116.5,257.5 C 117.978,257.238 119.311,257.571 120.5,258.5C 122.147,261.473 124.147,264.14 126.5,266.5C 128.5,263.833 130.5,261.167 132.5,258.5C 133.689,257.571 135.022,257.238 136.5,257.5C 136.5,266.167 136.5,274.833 136.5,283.5C 135.167,283.5 133.833,283.5 132.5,283.5C 132.666,277.491 132.499,271.491 132,265.5C 130.638,268.236 128.804,270.569 126.5,272.5C 124.196,270.569 122.362,268.236 121,265.5C 120.501,271.491 120.334,277.491 120.5,283.5C 119.167,283.5 117.833,283.5 116.5,283.5C 116.5,274.833 116.5,266.167 116.5,257.5 Z"/></g>
<g><path style="opacity:0.77" fill="#274906" d="M 149.5,257.5 C 150.833,257.5 152.167,257.5 153.5,257.5C 155.759,265.944 158.425,274.277 161.5,282.5C 160.167,283.833 158.833,283.833 157.5,282.5C 156.926,280.941 156.26,279.441 155.5,278C 152.518,277.502 149.518,277.335 146.5,277.5C 146.167,279.5 145.833,281.5 145.5,283.5C 144.167,283.5 142.833,283.5 141.5,283.5C 144.365,274.905 147.032,266.238 149.5,257.5 Z M 150.5,265.5 C 152.383,267.763 153.716,270.43 154.5,273.5C 152.604,274.466 150.604,274.799 148.5,274.5C 149.167,271.5 149.833,268.5 150.5,265.5 Z"/></g>
<g><path style="opacity:0.707" fill="#274906" d="M 188.5,257.5 C 189.833,257.5 191.167,257.5 192.5,257.5C 192.335,260.85 192.502,264.183 193,267.5C 196.547,263.09 200.714,259.757 205.5,257.5C 203.88,261.642 201.214,265.142 197.5,268C 200.851,272.871 203.518,278.037 205.5,283.5C 203.61,283.703 202.11,283.037 201,281.5C 199.254,277.673 197.254,274.007 195,270.5C 194.085,271.328 193.419,272.328 193,273.5C 192.502,276.817 192.335,280.15 192.5,283.5C 191.167,283.5 189.833,283.5 188.5,283.5C 188.5,274.833 188.5,266.167 188.5,257.5 Z"/></g>
<g><path style="opacity:0.811" fill="#274906" d="M 195.5,296.5 C 148.833,296.5 102.167,296.5 55.5,296.5C 55.5,295.167 55.5,293.833 55.5,292.5C 102.167,292.5 148.833,292.5 195.5,292.5C 195.5,293.833 195.5,295.167 195.5,296.5 Z"/></g>
</svg>
